<svg xmlns="http://www.w3.org/2000/svg" viewBox="0 0 760 256">
  <defs>
    <mask id="lm1" maskUnits="userSpaceOnUse" x="0" y="0" width="256" height="256">
      <rect width="256" height="256" fill="white"/>
      <circle cx="166" cy="150" r="44" fill="none" stroke="black" stroke-width="32"/>
    </mask>
    <mask id="lm2" maskUnits="userSpaceOnUse" x="0" y="0" width="256" height="256">
      <rect width="256" height="256" fill="white"/>
      <circle cx="85" cy="153" r="44" fill="none" stroke="black" stroke-width="32"/>
    </mask>
    <mask id="lm3" maskUnits="userSpaceOnUse" x="0" y="0" width="256" height="256">
      <rect width="256" height="256" fill="white"/>
      <circle cx="128" cy="78" r="44" fill="none" stroke="black" stroke-width="32"/>
    </mask>
  </defs>
  <rect width="760" height="256" rx="40" fill="#0e2638"/>
  <g transform="translate(24 24) scale(0.82)">
    <g fill="none" stroke="#ffffff" stroke-width="20">
      <circle cx="128" cy="78" r="44" mask="url(#lm1)"/>
      <circle cx="166" cy="150" r="44" mask="url(#lm2)"/>
      <circle cx="85" cy="153" r="44" mask="url(#lm3)"/>
    </g>
    <circle cx="128" cy="128" r="46" fill="#0e2638"/>
    <path d="M118 100 L138 100 L138 132 L154 132 L128 160 L102 132 L118 132 Z"
          fill="none" stroke="#ffffff" stroke-width="9" stroke-linejoin="round"/>
  </g>
  <g fill="#ffffff">
    <path d="M279.8954765625 160.828140625Q276.88828125 160.828140625 275.1776484375 159.147578125Q273.467015625 157.467015625 272.770734375 154.04575L262.1575078125 100.38737499999999Q261.3652265625 96.3958984375 263.26496484375 93.94387890625Q265.164703125 91.491859375 268.9641796875 91.491859375Q271.9054453125 91.491859375 273.67911328125 93.1845625Q275.45278125 94.87726562499999 276.0229921875 98.29853125L284.270953125 144.5904765625H280.190390625L304.56989062499997 96.941828125Q306.0283828125 94.12084374999999 307.9130859375 92.8063515625Q309.7977890625 91.491859375 312.5227734375 91.491859375Q315.181828125 91.491859375 316.73342578125 93.16952734375Q318.2850234375 94.8471953125 318.9211640625 98.4003203125L327.2951953125 144.5904765625H323.5685625L347.479640625 96.9360390625Q348.872203125 94.180984375 350.61290625000004 92.836421875Q352.353609375 91.491859375 355.26480468750003 91.491859375Q359.508421875 91.491859375 361.01201953124996 94.27698437500001Q362.51561718749997 97.062109375 360.45684375 101.0535859375L332.487234375 155.4082421875Q331.02874218750003 158.2292265625 329.01796875 159.52868359375Q327.0071953125 160.828140625 323.904 160.828140625Q320.926875 160.828140625 319.21624218750003 159.147578125Q317.505609375 157.467015625 316.809328125 154.04575L308.627296875 111.973140625H310.9255078125L288.50878124999997 155.378171875Q287.0502890625 158.19915625 285.0574453125 159.5136484375Q283.0646015625 160.828140625 279.8954765625 160.828140625Z M380.70126562499996 161.020140625Q373.35670312499997 161.020140625 367.89917578124994 158.32Q362.44164843749996 155.619859375 359.42633203124996 150.7296484375Q356.41101562499995 145.8394375 356.41101562499995 139.3172265625Q356.41101562499995 131.294875 359.8733671875 125.1329453125Q363.33571874999996 118.971015625 369.34207031249997 115.42826171875001Q375.348421875 111.88550781250001 382.932421875 111.88550781250001Q388.9387734375 111.88550781250001 393.04016015624995 113.91654296875001Q397.14154687499996 115.947578125 399.55079296875 119.37061328125Q401.96003906249996 122.7936484375 402.78817968749996 127.14371875Q403.61632031249997 131.4937890625 403.10625 136.0659296875Q402.85410937499995 138.2623515625 401.88486328125 138.91352734375Q400.91561718749995 139.564703125 399.28940624999996 139.564703125H368.1159375L369.19621874999996 132.0813671875H393.30974999999995L391.7679609375 133.4010859375Q392.25374999999997 129.9820703125 391.46492578125 127.3189140625Q390.6761015625 124.6557578125 388.5646640625 123.08735546874999Q386.4532265625 121.518953125 382.80635156249997 121.518953125Q379.1536875 121.518953125 376.63453125 123.1683203125Q374.115375 124.8176875 372.663796875 127.48084375Q371.21221875 130.144 370.696359375 133.299296875L370.15621875 136.6662109375Q369.12449999999995 143.0126640625 372.33993749999996 146.59939843749999Q375.55537499999997 150.1861328125 382.17825 150.1861328125Q384.69740625 150.1861328125 387.60401953124995 149.63730859375Q390.5106328125 149.088484375 392.79614062499996 147.889046875Q394.980984375 146.833046875 396.56844140625 147.1875390625Q398.15589843749996 147.54203125 398.98693359375 148.76976953125Q399.81796875 149.9975078125 399.85961718749996 151.60924609375002Q399.90126562499995 153.220984375 399.00663281249996 154.80844140624998Q398.11199999999997 156.3958984375 396.1850859375 157.3917578125Q392.8250859375 159.268984375 388.62303515625 160.1445625Q384.420984375 161.020140625 380.70126562499996 161.020140625Z M437.7448828125 161.020140625Q432.51923437500005 161.020140625 428.49358593750003 158.5784921875Q424.46793750000006 156.13684375 422.83593750000006 151.4397578125L423.880359375 148.288L423.10078125 153.5472578125Q422.62657031250006 157.1246640625 420.63662109375 158.97640234375Q418.64667187500004 160.828140625 415.069265625 160.828140625Q411.68385937500005 160.828140625 410.06633203125006 158.58026171875Q408.44880468750006 156.3323828125 409.0490859375 152.376765625L417.55610156250003 98.742671875Q418.12631250000004 95.165265625 420.21515625000006 93.3285625Q422.30400000000003 91.491859375 425.9114765625 91.491859375Q429.29688281250003 91.491859375 430.89648046875004 93.7067734375Q432.49607812500005 95.9216875 431.89579687500003 99.943234375L428.512640625 121.106171875H427.55264062500004Q430.20478125000005 116.738734375 434.41953515625005 114.31212109375001Q438.63428906250005 111.88550781250001 443.87151562500003 111.88550781250001Q449.21744531250005 111.88550781250001 453.171375 114.363578125Q457.12530468750003 116.8416484375 459.31826953125005 121.43171875Q461.511234375 126.0217890625 461.511234375 132.291859375Q461.511234375 140.4102109375 458.60405859375 146.92028125000002Q455.6968828125 153.4303515625 450.37177734375 157.22524609375Q445.046671875 161.020140625 437.7448828125 161.020140625ZM434.8151953125 150.1861328125Q438.65985937500005 150.1861328125 441.33805078125005 147.96076562500002Q444.01624218750004 145.7353984375 445.46782031250007 141.82134765625Q446.91939843750004 137.907296875 446.91939843750004 133.04828125Q446.91939843750004 128.0758984375 444.55927734375007 125.39770703125001Q442.19915625000004 122.719515625 438.0306328125 122.719515625Q434.2518984375 122.719515625 431.54074218750003 124.95991796875Q428.82958593750004 127.2003203125 427.3780078125001 131.06637109374998Q425.92642968750005 134.932421875 425.92642968750005 139.8573671875Q425.92642968750005 144.82975 428.3015859375 147.50794140624998Q430.67674218750005 150.1861328125 434.8151953125 150.1861328125Z M486.3903515625 161.020140625Q481.908421875 161.020140625 477.6664921875 160.18331640625001Q473.4245625 159.3464921875 470.2866328125 157.9909140625Q468.10178906249996 157.0667734375 467.18633203125 155.50938671875Q466.270875 153.952 466.39983984375 152.30440234374998Q466.5288046875 150.6568046875 467.4650859375 149.42327734375Q468.4013671875 148.18975 470.01889453125 147.7513984375Q471.636421875 147.313046875 473.6951953125 148.2371875Q476.737125 149.62283593749999 479.99187890625 150.34573046875Q483.24663281249997 151.068625 486.3302109375 151.068625Q490.4813671875 151.068625 492.53555859375 149.6291875Q494.58975 148.18975 494.58975 145.947015625Q494.58975 144.32771875 493.47127734375 143.33531640625Q492.3528046875 142.3429140625 489.971296875 141.92305468749998L481.2896484375 140.309546875Q475.678875 139.31368750000001 472.61555859375 136.10347656250002Q469.5522421875 132.893265625 469.5522421875 128.068984375Q469.5522421875 123.68884374999999 472.09045312499995 120.01945703125Q474.6286640625 116.35007031250001 479.62122656249994 114.11778906250001Q484.61378906249996 111.88550781250001 491.8750546875 111.88550781250001Q495.0904921875 111.88550781250001 498.81889453124995 112.64715625000001Q502.547296875 113.40880468750001 505.4573671875 114.89624218750001Q507.540421875 115.8562421875 508.4229140625 117.38355859375Q509.30540625 118.910875 509.12554687499994 120.46247265625Q508.94568749999996 122.0140703125 507.97644140624993 123.18166796874999Q507.00719531249996 124.349265625 505.34166796874996 124.7216875Q503.67614062499996 125.094109375 501.6173671875 124.1641796875Q499.30757812499996 123.030671875 496.547859375 122.43384765625Q493.788140625 121.8370234375 491.148703125 121.8370234375Q486.805546875 121.8370234375 484.64032031249997 123.32735546875Q482.47509375 124.8176875 482.47509375 127.21656250000001Q482.47509375 128.6137890625 483.398671875 129.6212265625Q484.32225 130.6286640625 486.3914765625 131.018453125L495.073125 132.6319609375Q501.254109375 133.78975 504.38335546875 136.93403125Q507.5126015625 140.0783125 507.5126015625 144.90259375Q507.5126015625 152.6855078125 501.73700390625 156.85282421875002Q495.96140625 161.020140625 486.3903515625 161.020140625Z M520.82540625 160.828140625Q517.44 160.828140625 515.8733671875 158.51433203125Q514.306734375 156.2005234375 514.907015625 152.24490624999999L523.3481015625 98.742671875Q523.9183125 95.165265625 526.00715625 93.3285625Q528.096 91.491859375 531.7034765625 91.491859375Q535.0888828125001 91.491859375 536.68848046875 93.67380859375001Q538.288078125 95.8557578125 537.687796875 99.8773046875L534.208640625 121.778171875H533.152640625Q535.5827109375 116.9608046875 539.9264296875 114.42315625Q544.2701484375 111.88550781250001 550.0775859375 111.88550781250001Q555.231515625 111.88550781250001 558.78062109375 114.01254296875001Q562.3297265625 116.139578125 563.83276171875 120.56771875000001Q565.335796875 124.99585937500001 564.2497265625 131.9622109375L560.8781484375 153.577328125Q560.3738671875 157.154734375 558.25205859375 158.99143750000002Q556.13025 160.828140625 552.5227734375001 160.828140625Q549.1373671875 160.828140625 547.522734375 158.58026171875Q545.9081015625 156.3323828125 546.5083828125 152.376765625L549.7238203125 132.21435156249998Q550.4675390625 127.686109375 549.058171875 125.39191796875Q547.6488046875 123.0977265625 543.8041406250001 123.0977265625Q538.982109375 123.0977265625 535.99509375 126.21370703125001Q533.008078125 129.3296875 532.1382890625 134.81214062499998L529.1507109375 153.577328125Q528.0461484375 160.828140625 520.82540625 160.828140625Z M587.0631562499999 161.020140625Q582.6228749999999 161.020140625 579.0107343749999 158.97696484375Q575.3985937499999 156.9337890625 573.23859375 153.59461328125002Q571.07859375 150.2554375 571.07859375 146.2535078125Q571.07859375 141.26150781249999 573.8926640625 138.12647265624997Q576.706734375 134.9914375 582.562734375 133.47047265625Q588.418734375 131.9495078125 597.47859375 131.9495078125H605.098453125L603.922171875 139.43284375H597.7538906249999Q593.1122812499999 139.43284375 590.3085820312499 139.9787734375Q587.5048828125 140.524703125 586.2753749999999 141.8143515625Q585.0458671875 143.10399999999998 585.0458671875 145.33515625Q585.0458671875 148.1839609375 586.98612890625 149.7673984375Q588.926390625 151.3508359375 591.8896874999999 151.3508359375Q594.6910546875 151.3508359375 596.8863515625001 150.2051875Q599.0816484375 149.0595390625 600.55405078125 146.92727734375Q602.026453125 144.795015625 602.4463125 141.916140625L604.2402421874999 130.6725625Q604.91803125 126.79203906250001 602.86327734375 124.6927421875Q600.8085234375 122.5934453125 595.883578125 122.5934453125Q592.9260703125 122.5934453125 590.08538671875 123.1573046875Q587.244703125 123.72116406250001 584.1368437499999 125.0108125Q581.952 125.83895312499999 580.3015078125 125.37053125Q578.651015625 124.90210937500001 577.6788750000001 123.6234765625Q576.706734375 122.34484375 576.71598046875 120.6822109375Q576.7252265625 119.01957812500001 577.89282421875 117.4650859375Q579.060421875 115.91059375 581.6234765625 114.92052343750001Q585.7757578124999 113.2769453125 589.9332656249999 112.5812265625Q594.0907734374999 111.88550781250001 597.8405624999999 111.88550781250001Q605.9958984374999 111.88550781250001 610.58653125 114.88Q615.1771640625 117.8744921875 616.78833984375 122.90001953125Q618.3995156249999 127.92554687500001 617.4094453125 134.1597578125L614.3501484374999 153.6432578125Q613.8458671875 157.2206640625 611.8350937499999 159.02440234375Q609.8243203124999 160.828140625 606.4990546875 160.828140625Q603.3657890625 160.828140625 601.8292265625 158.8474375Q600.2926640625 156.866734375 600.923015625 152.9111171875L601.7326640624999 147.8554375L602.1941718749999 150.37684375Q600.79003125 154.060703125 598.4322421874999 156.43352734375Q596.074453125 158.8063515625 593.1707343749999 159.91324609375Q590.267015625 161.020140625 587.0631562499999 161.020140625Z M631.4474765624999 160.828140625Q627.9660703124999 160.828140625 626.3844023437499 158.691296875Q624.8027343749999 156.554453125 625.403015625 152.6589765625L630.7061718749999 119.01025Q631.2763828125 115.55891406250001 633.3501914062499 113.8182109375Q635.424 112.0775078125 638.8094062499999 112.0775078125Q642.1948124999999 112.0775078125 643.7614453125 114.16635156250001Q645.3280781249999 116.2551953125 644.6977265625 120.1807421875L644.0141484374999 124.384H643.1142890624999Q644.9440781249999 118.72 649.28490234375 115.4496484375Q653.6257265625 112.179296875 659.463234375 111.915578125Q662.3015859374999 111.78371874999999 663.43911328125 112.90910546875Q664.576640625 114.0344921875 664.576640625 116.63340625000001Q664.576640625 120.4930234375 662.8359375 122.29676171874999Q661.0952343749999 124.1005 657.4518984375 124.448640625L654.276984375 124.7667109375Q648.5666718749999 125.3485 646.0833749999999 128.1735859375Q643.600078125 130.998671875 642.70021875 136.397828125L639.9289218749999 153.8953984375Q639.4246406249999 157.3768046875 637.3028320312499 159.10247265625Q635.1810234374999 160.828140625 631.4474765624999 160.828140625Z M670.9994765625 160.828140625Q667.5180703125001 160.828140625 665.93640234375 158.691296875Q664.354734375 156.554453125 664.9550156250001 152.6589765625L670.258171875 119.01025Q670.8283828125001 115.55891406250001 672.90219140625 113.8182109375Q674.9760000000001 112.0775078125 678.3614062500001 112.0775078125Q681.7468125 112.0775078125 683.3134453125001 114.16635156250001Q684.8800781250001 116.2551953125 684.2497265625001 120.1807421875L683.5661484375 124.384H682.6662890625Q684.496078125 118.72 688.8369023437501 115.4496484375Q693.1777265625001 112.179296875 699.0152343750001 111.915578125Q701.8535859375 111.78371874999999 702.9911132812501 112.90910546875Q704.1286406250001 114.0344921875 704.1286406250001 116.63340625000001Q704.1286406250001 120.4930234375 702.3879375000001 122.29676171874999Q700.647234375 124.1005 697.0038984375001 124.448640625L693.8289843750001 124.7667109375Q688.118671875 125.3485 685.6353750000001 128.1735859375Q683.1520781250001 130.998671875 682.2522187500001 136.397828125L679.480921875 153.8953984375Q678.9766406250001 157.3768046875 676.85483203125 159.10247265625Q674.7330234375 160.828140625 670.9994765625 160.828140625Z"/>
  </g>
</svg>
